<svg width="232" height="52" viewBox="0 0 232 52" fill="none" xmlns="http://www.w3.org/2000/svg">
<path d="M118.588 19.3645C119.909 19.3615 121.201 19.7506 122.3 20.4825C123.4 21.2144 124.258 22.2563 124.765 23.476C125.272 24.6958 125.405 26.0386 125.149 27.3344C124.892 28.6302 124.256 29.8206 123.322 30.7548C122.389 31.689 121.198 32.3251 119.903 32.5823C118.607 32.8396 117.264 32.7065 116.044 32.2C114.824 31.6934 113.782 30.8362 113.05 29.7368C112.317 28.6374 111.928 27.3455 111.93 26.0245C111.934 24.2596 112.636 22.568 113.884 21.3198C115.132 20.0716 116.823 19.3686 118.588 19.3645ZM118.588 17.1548C116.834 17.1533 115.119 17.672 113.659 18.6454C112.2 19.6188 111.062 21.0032 110.39 22.6233C109.718 24.2434 109.541 26.0265 109.882 27.7471C110.224 29.4677 111.068 31.0484 112.307 32.2892C113.547 33.5301 115.127 34.3754 116.847 34.7181C118.568 35.0609 120.351 34.8857 121.972 34.2148C123.592 33.5439 124.978 32.4074 125.952 30.9491C126.927 29.4907 127.447 27.776 127.447 26.0219C127.447 23.6702 126.513 21.4148 124.85 19.7519C123.187 18.089 120.932 17.1548 118.58 17.1548H118.588Z" fill="#212529"/>
<path d="M196.51 17.1549C195.249 17.1544 194.003 17.4232 192.855 17.9433C191.707 18.4633 190.683 19.2227 189.852 20.1705V8.40063H187.643V34.8891H189.852V26.0246C189.856 24.2597 190.558 22.5681 191.806 21.3199C193.054 20.0717 194.745 19.3687 196.51 19.3646C198.275 19.368 199.967 20.0707 201.215 21.319C202.464 22.5672 203.166 24.2593 203.17 26.0246V34.8891H205.379V26.0246C205.379 23.6735 204.445 21.4188 202.783 19.7564C201.121 18.0939 198.866 17.16 196.515 17.16L196.51 17.1549Z" fill="#212529"/>
<path d="M222.485 19.3645C223.806 19.362 225.098 19.7515 226.197 20.4837C227.296 21.216 228.154 22.258 228.66 23.4778C229.167 24.6976 229.3 26.0404 229.043 27.336C228.786 28.6316 228.15 29.8217 227.216 30.7557C226.282 31.6897 225.092 32.3255 223.796 32.5825C222.501 32.8396 221.158 32.7064 219.938 32.1997C218.718 31.6931 217.676 30.8358 216.944 29.7365C216.212 28.6372 215.822 27.3453 215.825 26.0245C215.828 24.2592 216.531 22.5672 217.779 21.3189C219.028 20.0707 220.72 19.3679 222.485 19.3645ZM222.485 17.1548C220.731 17.1543 219.016 17.6739 217.558 18.6479C216.099 19.6219 214.962 21.0066 214.291 22.6268C213.619 24.2471 213.443 26.03 213.785 27.7502C214.127 29.4705 214.971 31.0507 216.211 32.291C217.451 33.5314 219.031 34.3762 220.752 34.7185C222.472 35.0609 224.255 34.8854 225.875 34.2143C227.496 33.5433 228.881 32.4068 229.855 30.9485C230.829 29.4903 231.35 27.7758 231.35 26.0219C231.35 23.6707 230.416 21.4157 228.753 19.7528C227.091 18.09 224.836 17.1555 222.485 17.1548Z" fill="#212529"/>
<path d="M231.352 17.1548H229.143V34.8891H231.352V17.1548Z" fill="#212529"/>
<path d="M170.538 17.1548C169.279 17.1564 168.036 17.4262 166.889 17.9462C165.743 18.4662 164.721 19.2244 163.891 20.1704V17.1548H161.684V43.6459H163.891V31.876C164.869 32.9896 166.112 33.84 167.504 34.3494C168.896 34.8587 170.394 35.0108 171.86 34.7917C173.326 34.5726 174.714 33.9893 175.896 33.0951C177.079 32.201 178.018 31.0246 178.628 29.6736C179.239 28.3225 179.5 26.84 179.389 25.3617C179.279 23.8834 178.799 22.4565 177.994 21.2116C177.189 19.9667 176.085 18.9435 174.782 18.2357C173.48 17.5278 172.02 17.158 170.538 17.1599V17.1548ZM170.538 32.6793C169.221 32.6768 167.935 32.284 166.841 31.5505C165.747 30.8171 164.896 29.7759 164.394 28.5586C163.892 27.3412 163.762 26.0024 164.02 24.7113C164.279 23.4201 164.915 22.2346 165.847 21.3046C166.779 20.3746 167.966 19.7418 169.258 19.4861C170.549 19.2305 171.888 19.3635 173.104 19.8683C174.32 20.3732 175.36 21.2272 176.09 22.3225C176.821 23.4178 177.211 24.7051 177.211 26.0219C177.207 27.789 176.502 29.4823 175.251 30.7304C174 31.9784 172.305 32.6793 170.538 32.6793Z" fill="#212529"/>
<path d="M153.43 26.0245C153.43 23.6735 152.496 21.4187 150.834 19.7563C149.172 18.0939 146.917 17.1599 144.566 17.1599C142.215 17.1599 139.96 18.0939 138.298 19.7563C136.635 21.4187 135.701 23.6735 135.701 26.0245V34.8891H137.911V26.0245C137.914 24.257 138.619 22.563 139.87 21.3144C141.121 20.0658 142.816 19.3645 144.584 19.3645C145.458 19.3645 146.324 19.5368 147.132 19.8715C147.94 20.2062 148.674 20.6969 149.292 21.3153C149.91 21.9338 150.401 22.668 150.735 23.476C151.07 24.284 151.241 25.15 151.241 26.0245H153.443H153.43Z" fill="#212529"/>
<path d="M92.616 17.1548C91.0287 17.1521 89.4699 17.5762 88.1027 18.3826C86.7355 19.189 85.6103 20.3481 84.8447 21.7385C84.0785 20.3503 82.9542 19.1928 81.5887 18.3867C80.2233 17.5805 78.6668 17.1551 77.0811 17.1548C75.8182 17.1528 74.5695 17.4208 73.4186 17.9409C72.2677 18.461 71.2414 19.2212 70.4083 20.1704V17.1548H68.2012V34.8891H70.4083V26.0245C70.4117 24.257 71.1163 22.563 72.3673 21.3144C73.6183 20.0658 75.3136 19.3645 77.0811 19.3645C78.8464 19.3679 80.5385 20.0707 81.7867 21.3189C83.035 22.5672 83.7377 24.2592 83.7411 26.0245V34.8891H85.9508V26.0245C85.9542 24.2574 86.6584 22.5639 87.9089 21.3153C89.1594 20.0668 90.854 19.3652 92.6211 19.3645C94.3864 19.3679 96.0784 20.0707 97.3267 21.3189C98.5749 22.5672 99.2777 24.2592 99.2811 26.0245V34.8891H101.488V26.0245C101.488 23.6735 100.554 21.4187 98.8919 19.7563C97.2294 18.0939 94.9747 17.1599 92.6237 17.1599L92.616 17.1548Z" fill="#212529"/>
<path d="M34.4403 39.0802C33.4542 38.3918 32.596 37.5362 31.9046 36.5522C28.2003 37.4146 24.3473 37.4146 20.643 36.5522C19.9533 37.5352 19.0979 38.3906 18.115 39.0802C18.0579 39.1194 18.0141 39.175 17.9894 39.2396C17.9646 39.3042 17.9601 39.3748 17.9764 39.4421C18.2657 40.5866 18.6283 41.7113 19.062 42.8093C23.8101 43.942 28.758 43.942 33.5061 42.8093C33.9398 41.7116 34.3016 40.5868 34.5891 39.4421C34.6054 39.3751 34.601 39.3048 34.5768 39.2402C34.5525 39.1757 34.5095 39.12 34.4531 39.0802H34.4403Z" fill="#2FADEC"/>
<path d="M28.1853 26.4351L26.5863 21.4459C26.5642 21.378 26.5211 21.3188 26.4632 21.2768C26.4054 21.2348 26.3357 21.2122 26.2642 21.2122C26.1928 21.2122 26.1231 21.2348 26.0653 21.2768C26.0074 21.3188 25.9643 21.378 25.9422 21.4459L24.3535 26.4351C24.9863 26.522 25.6243 26.5649 26.263 26.5635C26.9007 26.5622 27.5377 26.5194 28.1698 26.4351H28.1853Z" fill="#2FADEC"/>
<path d="M30.717 34.3194C30.6348 34.1039 30.5527 33.8857 30.4834 33.6624L28.9435 28.7861C27.1878 29.0736 25.397 29.0736 23.6412 28.7861L22.1013 33.6624C22.0295 33.8857 21.9525 34.1039 21.8652 34.3194C24.797 34.9147 27.8185 34.9147 30.7503 34.3194H30.717Z" fill="#2FADEC"/>
<path d="M26.273 46.079C24.2873 46.0815 22.3053 45.9098 20.3496 45.5657C20.5518 45.8907 20.7765 46.2011 21.022 46.4947L25.2336 51.5173C25.361 51.6685 25.52 51.7901 25.6993 51.8734C25.8786 51.9568 26.074 52 26.2717 52C26.4695 52 26.6649 51.9568 26.8442 51.8734C27.0235 51.7901 27.1824 51.6685 27.3099 51.5173L31.5214 46.4947C31.7669 46.2011 31.9916 45.8907 32.1939 45.5657C30.2382 45.9099 28.2561 46.0816 26.2704 46.079H26.273Z" fill="#2FADEC"/>
<path d="M25.9359 14.8887L20.2152 32.8796C17.8592 40.2711 8.51728 42.5475 3.03531 37.0604C-2.44666 31.5784 -0.175338 22.2314 7.21608 19.8805L25.207 14.1598C25.3088 14.1276 25.4174 14.1239 25.5211 14.1491C25.6248 14.1744 25.7196 14.2277 25.7951 14.3032C25.8706 14.3787 25.9238 14.4734 25.9491 14.5772C25.9744 14.6809 25.9707 14.7895 25.9385 14.8913L25.9359 14.8887Z" fill="#2FADEC"/>
<path d="M26.6153 14.8887L32.3359 32.8796C34.6868 40.2711 44.0313 42.5475 49.5133 37.0604C54.9978 31.5784 52.7239 22.2314 45.3351 19.8805L27.3544 14.1598C27.2527 14.1276 27.144 14.1239 27.0403 14.1491C26.9366 14.1744 26.8418 14.2277 26.7663 14.3032C26.6909 14.3787 26.6376 14.4734 26.6123 14.5772C26.587 14.6809 26.5907 14.7895 26.623 14.8913L26.6153 14.8887Z" fill="#2FADEC"/>
<path d="M23.9062 11.8192C25.4627 11.4325 27.0901 11.4325 28.6465 11.8192C29.5576 12.045 31.0025 12.7996 31.9829 13.4335C32.1783 13.5598 32.3982 13.6436 32.6282 13.6792C32.8581 13.7148 33.093 13.7016 33.3175 13.6403C33.542 13.579 33.7511 13.4711 33.9311 13.3236C34.111 13.1761 34.2579 12.9923 34.362 12.7842C34.9703 11.5369 35.1602 10.1279 35.1166 8.63933C35.0619 6.30738 34.0885 4.09139 32.4081 2.47358C30.7277 0.855776 28.4764 -0.0329044 26.1441 0.000931993C23.8117 0.0347684 21.5871 0.988383 19.9544 2.65425C18.3216 4.32012 17.4129 6.56342 17.4259 8.89597C17.4259 10.2896 17.8904 11.6087 18.4525 12.7816C18.5564 12.9896 18.703 13.1734 18.8827 13.3209C19.0625 13.4684 19.2713 13.5763 19.4956 13.6376C19.7199 13.6989 19.9546 13.7122 20.1844 13.6765C20.4142 13.6409 20.6338 13.5572 20.8291 13.4309C21.83 12.7996 22.9926 12.0425 23.9062 11.8192Z" fill="#2FADEC"/>
</svg>
