<svg width="42" height="41" viewBox="0 0 42 41" fill="none" xmlns="http://www.w3.org/2000/svg">
<path d="M27.0941 30.7436C26.3184 30.202 25.6433 29.529 25.0994 28.7549C22.1852 29.4332 19.1542 29.4332 16.2401 28.7549C15.6975 29.5281 15.0246 30.201 14.2514 30.7436C14.2065 30.7744 14.172 30.8181 14.1525 30.8689C14.1331 30.9198 14.1295 30.9753 14.1423 31.0282C14.3699 31.9286 14.6551 32.8134 14.9964 33.6772C18.7316 34.5682 22.624 34.5682 26.3592 33.6772C26.7004 32.8136 26.985 31.9288 27.2112 31.0282C27.224 30.9755 27.2206 30.9202 27.2015 30.8694C27.1824 30.8187 27.1485 30.7748 27.1042 30.7436H27.0941Z" fill="#2FADEC"/>
<path d="M22.1725 20.7961L20.9147 16.8712C20.8973 16.8177 20.8634 16.7711 20.8179 16.7381C20.7724 16.705 20.7176 16.6873 20.6613 16.6873C20.6051 16.6873 20.5503 16.705 20.5048 16.7381C20.4593 16.7711 20.4254 16.8177 20.408 16.8712L19.1582 20.7961C19.656 20.8644 20.1579 20.8981 20.6603 20.897C21.162 20.896 21.6631 20.8623 22.1604 20.7961H22.1725Z" fill="#2FADEC"/>
<path d="M24.1647 26.9984C24.1 26.8288 24.0354 26.6572 23.9809 26.4815L22.7695 22.6455C21.3883 22.8716 19.9795 22.8716 18.5983 22.6455L17.3869 26.4815C17.3304 26.6572 17.2698 26.8288 17.2012 26.9984C19.5076 27.4666 21.8845 27.4666 24.1909 26.9984H24.1647Z" fill="#2FADEC"/>
<path d="M20.6696 36.2495C19.1075 36.2515 17.5482 36.1164 16.0098 35.8457C16.1688 36.1013 16.3456 36.3456 16.5387 36.5766L19.8519 40.5277C19.9522 40.6467 20.0772 40.7423 20.2182 40.8079C20.3593 40.8735 20.513 40.9075 20.6686 40.9075C20.8241 40.9075 20.9778 40.8735 21.1189 40.8079C21.26 40.7423 21.385 40.6467 21.4853 40.5277L24.7984 36.5766C24.9915 36.3456 25.1683 36.1013 25.3274 35.8457C23.7889 36.1165 22.2297 36.2516 20.6676 36.2495H20.6696Z" fill="#2FADEC"/>
<path d="M20.4032 11.7128L15.9029 25.8659C14.0495 31.6806 6.70037 33.4714 2.38782 29.1548C-1.92474 24.8422 -0.137935 17.4891 5.67674 15.6397L19.8298 11.1394C19.9099 11.114 19.9954 11.1111 20.0769 11.131C20.1585 11.1509 20.2331 11.1928 20.2924 11.2522C20.3518 11.3116 20.3937 11.3861 20.4136 11.4677C20.4335 11.5493 20.4306 11.6348 20.4052 11.7148L20.4032 11.7128Z" fill="#2FADEC"/>
<path d="M20.9373 11.7128L25.4376 25.8659C27.287 31.6806 34.6381 33.4714 38.9506 29.1548C43.2652 24.8422 41.4764 17.4891 35.6637 15.6397L21.5187 11.1394C21.4387 11.114 21.3532 11.1111 21.2716 11.131C21.19 11.1509 21.1155 11.1928 21.0561 11.2522C20.9967 11.3116 20.9548 11.3861 20.9349 11.4677C20.915 11.5493 20.9179 11.6348 20.9433 11.7148L20.9373 11.7128Z" fill="#2FADEC"/>
<path d="M18.8051 9.29795C20.0295 8.99375 21.3097 8.99375 22.5341 9.29795C23.2509 9.47563 24.3876 10.0692 25.1588 10.5679C25.3126 10.6673 25.4855 10.7332 25.6664 10.7612C25.8473 10.7892 26.0321 10.7788 26.2087 10.7306C26.3853 10.6824 26.5498 10.5975 26.6914 10.4815C26.833 10.3654 26.9485 10.2208 27.0304 10.0571C27.5089 9.07587 27.6583 7.96744 27.624 6.79643C27.581 4.96194 26.8152 3.21866 25.4933 1.94597C24.1714 0.673276 22.4003 -0.0258294 20.5655 0.00078897C18.7307 0.0274073 16.9807 0.777596 15.6962 2.0881C14.4118 3.39861 13.6969 5.16336 13.7071 6.99833C13.7071 8.09464 14.0726 9.1324 14.5147 10.0551C14.5964 10.2187 14.7118 10.3633 14.8532 10.4793C14.9946 10.5954 15.1589 10.6803 15.3353 10.7285C15.5118 10.7767 15.6964 10.7871 15.8772 10.7591C16.0579 10.7311 16.2307 10.6652 16.3843 10.5659C17.1717 10.0692 18.0863 9.47361 18.8051 9.29795Z" fill="#2FADEC"/>
</svg>
